<svg width="89" height="27" viewBox="0 0 89 27" fill="none" xmlns="http://www.w3.org/2000/svg">
<g clip-path="url(#clip0_2_228)">
<path d="M85.5601 0.589726C87.1308 0.589726 88.4088 1.86471 88.4088 3.43161V23.5678C88.4088 25.1353 87.1308 26.4103 85.5601 26.4103H3.43995C1.86924 26.4103 0.591158 25.1353 0.591158 23.5678V3.43161C0.591158 1.86471 1.86924 0.589726 3.43995 0.589726H85.5595M85.5595 0H3.43995C1.53997 0 0 1.53624 0 3.43161V23.5678C0 25.4632 1.53997 27 3.43995 27H85.5595C87.4594 27 88.9994 25.4638 88.9994 23.5678V3.43161C88.9994 1.53624 87.4594 0 85.5595 0Z" fill="white"/>
<path d="M9.37102 11.032C7.92741 13.5312 8.84489 17.3243 10.4416 19.6237C11.2385 20.7736 12.0454 21.8057 13.1503 21.8057C13.171 21.8057 13.1917 21.8057 13.2135 21.8045C13.7326 21.7838 14.108 21.6246 14.4709 21.4701C14.8782 21.2967 15.2997 21.118 15.9607 21.118C16.6216 21.118 16.9905 21.2914 17.3783 21.4583C17.7607 21.6234 18.1544 21.7945 18.7361 21.7832C19.9811 21.7602 20.7455 20.6463 21.4194 19.6638C22.1229 18.6382 22.4764 17.6422 22.5952 17.2612L22.5999 17.2459C22.6224 17.1781 22.5905 17.1044 22.5255 17.0749C22.5255 17.0749 22.5172 17.0713 22.5154 17.0708C22.2961 16.9811 20.3731 16.1301 20.353 13.8107C20.334 11.926 21.7954 10.9288 22.0886 10.7477L22.1022 10.7389C22.1341 10.7188 22.156 10.6864 22.1637 10.6492C22.1714 10.6121 22.1637 10.5737 22.1418 10.5425C21.1333 9.06994 19.5874 8.84821 18.9649 8.82167C18.8751 8.81282 18.7817 8.80811 18.6883 8.80811C17.957 8.80811 17.2571 9.08351 16.6943 9.30465C16.3059 9.45739 15.9701 9.58949 15.7396 9.58949C15.4795 9.58949 15.1419 9.45562 14.7517 9.30171C14.2292 9.09471 13.6368 8.86059 13.0102 8.86059C12.9954 8.86059 12.9806 8.86059 12.9659 8.86118C11.5081 8.88241 10.1307 9.71451 9.37161 11.0314L9.37102 11.032Z" fill="white"/>
<path d="M18.9661 4.76965C18.0835 4.80562 17.0248 5.34758 16.3922 6.08709C15.8543 6.70807 15.3287 7.74481 15.4671 8.78922C15.4759 8.85468 15.5291 8.9048 15.5953 8.91011C15.655 8.91483 15.7153 8.91719 15.7762 8.91719C16.6393 8.91719 17.5704 8.44069 18.2059 7.67405C18.8751 6.86435 19.2132 5.82525 19.111 4.89408C19.1027 4.82095 19.0382 4.7667 18.9661 4.76965Z" fill="white"/>
<path d="M29.121 5.30688H30.7945C31.2338 5.30688 31.6233 5.39711 31.9639 5.57816C32.3044 5.7592 32.5692 6.00925 32.7584 6.32888C32.9475 6.64851 33.0421 7.01119 33.0421 7.41692C33.0421 7.82265 32.9475 8.18534 32.7584 8.50497C32.5692 8.8246 32.3044 9.07464 31.9639 9.2551C31.6233 9.43614 31.2338 9.52637 30.7945 9.52637H29.121V5.30688ZM30.7703 9.2492C31.1611 9.2492 31.5051 9.17195 31.8036 9.01685C32.1016 8.86234 32.3316 8.64591 32.4923 8.36874C32.6531 8.09157 32.7341 7.7743 32.7341 7.41633C32.7341 7.05837 32.6537 6.7411 32.4923 6.46393C32.331 6.18676 32.1016 5.97092 31.8036 5.81582C31.5057 5.66131 31.1611 5.58406 30.7703 5.58406H29.429V9.24861H30.7703V9.2492Z" fill="white"/>
<path d="M34.4414 9.34538C34.202 9.20856 34.0134 9.01867 33.8763 8.7757C33.7391 8.53274 33.6705 8.25851 33.6705 7.95304C33.6705 7.64756 33.7391 7.37334 33.8763 7.13037C34.0134 6.8874 34.2014 6.69751 34.4414 6.56069C34.6808 6.42388 34.9498 6.35547 35.2483 6.35547C35.5469 6.35547 35.8153 6.42388 36.0553 6.56069C36.2947 6.69751 36.4833 6.8874 36.6204 7.13037C36.7576 7.37334 36.8261 7.64756 36.8261 7.95304C36.8261 8.25851 36.7576 8.53274 36.6204 8.7757C36.4833 9.01867 36.2953 9.20856 36.0553 9.34538C35.8158 9.48219 35.5469 9.5506 35.2483 9.5506C34.9498 9.5506 34.6814 9.48219 34.4414 9.34538ZM35.8974 9.11008C36.089 8.99744 36.2397 8.84116 36.3508 8.64007C36.4614 8.43897 36.517 8.21016 36.517 7.95304C36.517 7.69592 36.4614 7.4671 36.3508 7.26601C36.2397 7.06491 36.089 6.90863 35.8974 6.79599C35.7059 6.68336 35.4895 6.62733 35.2477 6.62733C35.006 6.62733 34.7896 6.68336 34.5981 6.79599C34.4065 6.90863 34.2558 7.0655 34.1446 7.26601C34.0335 7.4671 33.9785 7.69592 33.9785 7.95304C33.9785 8.21016 34.0341 8.43956 34.1446 8.64007C34.2552 8.84116 34.4065 8.99803 34.5981 9.11008C34.7896 9.22272 35.006 9.27874 35.2477 9.27874C35.4895 9.27874 35.7059 9.22272 35.8974 9.11008Z" fill="white"/>
<path d="M42.1784 6.37964L40.9819 9.52583H40.6982L39.6347 6.7954L38.5653 9.52583H38.2874L37.0909 6.37964H37.3812L38.4323 9.1885L39.5076 6.37964H39.7677L40.8371 9.18261L41.9006 6.37964H42.1784Z" fill="white"/>
<path d="M45.3565 6.69926C45.5859 6.92807 45.7012 7.25773 45.7012 7.68764V9.52581H45.3991V7.71123C45.3991 7.35739 45.3092 7.08848 45.1301 6.9033C44.951 6.71872 44.7003 6.62613 44.3776 6.62613C44.0069 6.62613 43.7149 6.737 43.5015 6.95756C43.288 7.17871 43.181 7.47593 43.181 7.84981V9.52522H42.879V6.37904H43.1692V7.06017C43.278 6.83902 43.44 6.66623 43.6557 6.5418C43.8709 6.41737 44.1263 6.35486 44.4201 6.35486C44.815 6.35486 45.1271 6.46926 45.3565 6.69867V6.69926Z" fill="white"/>
<path d="M46.9456 5.05396H47.2476V9.52643H46.9456V5.05396Z" fill="white"/>
<path d="M48.9484 9.34538C48.7084 9.20856 48.5204 9.01867 48.3833 8.7757C48.2461 8.53274 48.1776 8.25851 48.1776 7.95304C48.1776 7.64756 48.2461 7.37334 48.3833 7.13037C48.5204 6.8874 48.7084 6.69751 48.9484 6.56069C49.1878 6.42388 49.4568 6.35547 49.7548 6.35547C50.0527 6.35547 50.3217 6.42388 50.5617 6.56069C50.8011 6.69751 50.9897 6.8874 51.1268 7.13037C51.264 7.37334 51.332 7.64756 51.332 7.95304C51.332 8.25851 51.2634 8.53274 51.1268 8.7757C50.9897 9.01867 50.8017 9.20856 50.5617 9.34538C50.3217 9.48219 50.0533 9.5506 49.7548 9.5506C49.4562 9.5506 49.1878 9.48219 48.9484 9.34538ZM50.4044 9.11008C50.596 8.99744 50.7467 8.84116 50.8579 8.64007C50.9684 8.43897 51.024 8.21016 51.024 7.95304C51.024 7.69592 50.9684 7.4671 50.8579 7.26601C50.7467 7.06491 50.596 6.90863 50.4044 6.79599C50.2129 6.68336 49.9965 6.62733 49.7548 6.62733C49.513 6.62733 49.2966 6.68336 49.1051 6.79599C48.9135 6.90863 48.7628 7.0655 48.6517 7.26601C48.5405 7.4671 48.4855 7.69592 48.4855 7.95304C48.4855 8.21016 48.5411 8.43956 48.6517 8.64007C48.7622 8.84116 48.9135 8.99803 49.1051 9.11008C49.2966 9.22272 49.513 9.27874 49.7548 9.27874C49.9965 9.27874 50.2129 9.22272 50.4044 9.11008Z" fill="white"/>
<path d="M54.2204 6.65389C54.4296 6.85263 54.5343 7.14513 54.5343 7.53081V9.52585H54.244V8.96503C54.1435 9.14961 53.9963 9.2935 53.803 9.39612C53.6097 9.49873 53.378 9.55003 53.1084 9.55003C52.7578 9.55003 52.4812 9.46747 52.2778 9.30294C52.0745 9.13841 51.9728 8.92139 51.9728 8.65188C51.9728 8.38238 52.0662 8.17892 52.2536 8.01616C52.441 7.85339 52.7401 7.77201 53.151 7.77201H54.2328V7.51902C54.2328 7.22592 54.153 7.00301 53.9939 6.84968C53.8349 6.69694 53.602 6.62087 53.2958 6.62087C53.0865 6.62087 52.8861 6.65684 52.6946 6.72938C52.503 6.80191 52.3411 6.89804 52.2081 7.01893L52.0567 6.80191C52.214 6.66156 52.4031 6.55187 52.6248 6.47343C52.8465 6.395 53.0782 6.35608 53.3194 6.35608C53.7102 6.35608 54.0105 6.45574 54.2198 6.65448L54.2204 6.65389ZM53.8184 9.12248C54.0016 9.00218 54.1394 8.82703 54.2322 8.59822V8.00731H53.1569C52.8465 8.00731 52.6219 8.06334 52.4829 8.17597C52.344 8.28861 52.2743 8.44312 52.2743 8.64009C52.2743 8.83705 52.3505 9.0069 52.5036 9.12543C52.6568 9.24397 52.8719 9.30353 53.1504 9.30353C53.4123 9.30353 53.6345 9.24338 53.8178 9.12248H53.8184Z" fill="white"/>
<path d="M58.589 5.05396V9.52643H58.2929V8.78515C58.1681 9.03048 57.9926 9.21919 57.7673 9.35188C57.5415 9.48456 57.2861 9.55061 57 9.55061C56.7139 9.55061 56.4402 9.48221 56.2025 9.34539C55.9649 9.20857 55.7787 9.01986 55.6439 8.77866C55.5091 8.53746 55.4417 8.26265 55.4417 7.95305C55.4417 7.64344 55.5091 7.36745 55.6439 7.12448C55.7787 6.88151 55.9649 6.6928 56.2025 6.55776C56.4402 6.4233 56.7062 6.35607 57 6.35607C57.2938 6.35607 57.535 6.42212 57.7585 6.55481C57.9819 6.6875 58.1581 6.87208 58.287 7.10915V5.05396H58.589ZM57.6674 9.11068C57.859 8.99804 58.0097 8.84176 58.1208 8.64067C58.2314 8.43957 58.287 8.21076 58.287 7.95364C58.287 7.69652 58.2314 7.4677 58.1208 7.26661C58.0097 7.06551 57.859 6.90923 57.6674 6.79659C57.4759 6.68396 57.2595 6.62793 57.0177 6.62793C56.776 6.62793 56.5596 6.68396 56.3681 6.79659C56.1765 6.90923 56.0258 7.0661 55.9146 7.26661C55.8035 7.4677 55.7485 7.69652 55.7485 7.95364C55.7485 8.21076 55.8041 8.44016 55.9146 8.64067C56.0252 8.84176 56.1765 8.99863 56.3681 9.11068C56.5596 9.22332 56.776 9.27934 57.0177 9.27934C57.2595 9.27934 57.4759 9.22332 57.6674 9.11068Z" fill="white"/>
<path d="M61.8428 9.34538C61.6034 9.20856 61.4148 9.01867 61.2776 8.7757C61.1405 8.53274 61.0719 8.25851 61.0719 7.95304C61.0719 7.64756 61.1405 7.37334 61.2776 7.13037C61.4148 6.8874 61.6028 6.69751 61.8428 6.56069C62.0822 6.42388 62.3512 6.35547 62.6497 6.35547C62.9482 6.35547 63.2166 6.42388 63.456 6.56069C63.6955 6.69751 63.884 6.8874 64.0212 7.13037C64.1583 7.37334 64.2263 7.64756 64.2263 7.95304C64.2263 8.25851 64.1577 8.53274 64.0212 8.7757C63.884 9.01867 63.6961 9.20856 63.456 9.34538C63.2166 9.48219 62.9476 9.5506 62.6497 9.5506C62.3518 9.5506 62.0828 9.48219 61.8428 9.34538ZM63.2988 9.11008C63.4903 8.99744 63.6411 8.84116 63.7522 8.64007C63.8628 8.43897 63.9183 8.21016 63.9183 7.95304C63.9183 7.69592 63.8628 7.4671 63.7522 7.26601C63.6411 7.06491 63.4903 6.90863 63.2988 6.79599C63.1073 6.68336 62.8909 6.62733 62.6491 6.62733C62.4073 6.62733 62.191 6.68336 61.9994 6.79599C61.8079 6.90863 61.6571 7.0655 61.546 7.26601C61.4349 7.4671 61.3799 7.69592 61.3799 7.95304C61.3799 8.21016 61.4355 8.43956 61.546 8.64007C61.6566 8.84116 61.8079 8.99803 61.9994 9.11008C62.191 9.22272 62.4073 9.27874 62.6491 9.27874C62.8909 9.27874 63.1073 9.22272 63.2988 9.11008Z" fill="white"/>
<path d="M67.6402 6.69926C67.8696 6.92807 67.9848 7.25773 67.9848 7.68764V9.52581H67.6828V7.71123C67.6828 7.35739 67.5929 7.08848 67.4138 6.9033C67.2347 6.71872 66.984 6.62613 66.6612 6.62613C66.2906 6.62613 65.9986 6.737 65.7851 6.95756C65.5717 7.17871 65.4647 7.47593 65.4647 7.84981V9.52522H65.1627V6.37904H65.4529V7.06017C65.5617 6.83902 65.7237 6.66623 65.9394 6.5418C66.1546 6.41737 66.41 6.35486 66.7038 6.35486C67.0987 6.35486 67.4108 6.46926 67.6402 6.69867V6.69926Z" fill="white"/>
<path d="M72.3464 9.32713C72.2696 9.39966 72.1744 9.45451 72.0591 9.49284C71.9445 9.53117 71.8245 9.55004 71.6997 9.55004C71.4254 9.55004 71.2144 9.47456 71.0654 9.32418C70.9164 9.17321 70.8419 8.96386 70.8419 8.69435V6.63916H70.262V6.38027H70.8419V5.69324H71.144V6.38027H72.1472V6.63916H71.144V8.66428C71.144 8.86891 71.1931 9.02519 71.2918 9.13134C71.3905 9.23808 71.5366 9.29115 71.7299 9.29115C71.9232 9.29115 72.0905 9.23277 72.2193 9.11659L72.3464 9.32772V9.32713Z" fill="white"/>
<path d="M75.664 6.69925C75.8934 6.92806 76.0086 7.25772 76.0086 7.68763V9.5258H75.7066V7.71122C75.7066 7.35738 75.6167 7.08847 75.4376 6.90329C75.2585 6.71871 75.0078 6.62612 74.685 6.62612C74.3144 6.62612 74.0224 6.73699 73.809 6.95755C73.5955 7.1787 73.4885 7.47592 73.4885 7.8498V9.52521H73.1865V5.05273H73.4885V7.03598C73.5973 6.81896 73.7581 6.65148 73.9721 6.53295C74.1855 6.41441 74.4373 6.35485 74.7276 6.35485C75.1225 6.35485 75.4346 6.46926 75.664 6.69866V6.69925Z" fill="white"/>
<path d="M79.9233 8.02557H77.2105C77.2187 8.2709 77.2808 8.48851 77.3979 8.67958C77.5149 8.87065 77.6727 9.01808 77.872 9.12246C78.0712 9.22684 78.2958 9.27933 78.5459 9.27933C78.751 9.27933 78.9414 9.24218 79.1169 9.16787C79.2919 9.09357 79.4379 8.98388 79.555 8.83939L79.73 9.03813C79.5928 9.20325 79.4208 9.32946 79.2133 9.41791C79.0058 9.50637 78.7812 9.5506 78.5394 9.5506C78.2249 9.5506 77.9453 9.48219 77.6993 9.34538C77.4534 9.20856 77.2613 9.01985 77.1224 8.77865C76.9835 8.53745 76.9137 8.26264 76.9137 7.95304C76.9137 7.64343 76.9793 7.37334 77.11 7.13037C77.2406 6.8874 77.4209 6.69751 77.6509 6.56069C77.8802 6.42388 78.138 6.35547 78.4241 6.35547C78.7102 6.35547 78.9668 6.4227 79.1944 6.55716C79.422 6.69161 79.6011 6.87974 79.7323 7.12093C79.863 7.36213 79.9286 7.63517 79.9286 7.94065L79.9227 8.02498L79.9233 8.02557ZM77.8264 6.76887C77.6491 6.86735 77.5072 7.00594 77.4002 7.18462C77.2932 7.36331 77.2317 7.56559 77.2158 7.79027H79.6324C79.6206 7.565 79.5597 7.36449 79.4509 7.18757C79.3422 7.01065 79.1991 6.87207 79.0218 6.77182C78.8444 6.67156 78.6452 6.62085 78.4235 6.62085C78.2018 6.62085 78.0026 6.67038 77.8253 6.76828L77.8264 6.76887Z" fill="white"/>
<path d="M33.5949 18.8534H29.9811L29.2688 20.5223H27.8849L31.1374 13.3118H32.4593L35.7219 20.5223H34.3179L33.5949 18.8534ZM33.1509 17.8025L31.7877 14.6504L30.4351 17.8025H33.1509Z" fill="white"/>
<path d="M41.0133 15.3104C41.4366 15.5439 41.7688 15.8736 42.01 16.2994C42.2506 16.7251 42.3712 17.2164 42.3712 17.7725C42.3712 18.3286 42.2506 18.8216 42.01 19.2503C41.7688 19.6797 41.4372 20.0111 41.0133 20.2446C40.59 20.4781 40.11 20.5949 39.5726 20.5949C38.829 20.5949 38.2408 20.3478 37.8069 19.853V22.521H36.5164V15.022H37.7454V15.7432C37.9588 15.4826 38.2218 15.2868 38.5352 15.1559C38.8485 15.0255 39.1943 14.9601 39.5726 14.9601C40.1094 14.9601 40.5894 15.0768 41.0133 15.3104ZM40.6001 19.0186C40.9063 18.7031 41.0594 18.2873 41.0594 17.7725C41.0594 17.2577 40.9063 16.8419 40.6001 16.5258C40.2939 16.2103 39.9031 16.0523 39.4284 16.0523C39.1186 16.0523 38.8396 16.123 38.5919 16.2634C38.3442 16.4043 38.148 16.6048 38.0031 16.8661C37.8583 17.1273 37.7862 17.4293 37.7862 17.7725C37.7862 18.1157 37.8583 18.4182 38.0031 18.6789C38.148 18.9401 38.3436 19.1406 38.5919 19.2816C38.8396 19.4225 39.1186 19.4927 39.4284 19.4927C39.9031 19.4927 40.2939 19.3347 40.6001 19.0192V19.0186Z" fill="white"/>
<path d="M48.0965 15.3104C48.5198 15.5439 48.852 15.8736 49.0932 16.2994C49.3338 16.7251 49.4544 17.2164 49.4544 17.7725C49.4544 18.3286 49.3338 18.8216 49.0932 19.2503C48.852 19.6797 48.5204 20.0111 48.0965 20.2446C47.6733 20.4781 47.1933 20.5949 46.6559 20.5949C45.9122 20.5949 45.324 20.3478 44.8901 19.853V22.521H43.5996V15.022H44.8286V15.7432C45.042 15.4826 45.3051 15.2868 45.6184 15.1559C45.9317 15.0255 46.2776 14.9601 46.6559 14.9601C47.1927 14.9601 47.6727 15.0768 48.0965 15.3104ZM47.6833 19.0186C47.9895 18.7031 48.1427 18.2873 48.1427 17.7725C48.1427 17.2577 47.9895 16.8419 47.6833 16.5258C47.3771 16.2103 46.9863 16.0523 46.5116 16.0523C46.2019 16.0523 45.9229 16.123 45.6752 16.2634C45.4275 16.4043 45.2312 16.6048 45.0864 16.8661C44.9415 17.1273 44.8694 17.4293 44.8694 17.7725C44.8694 18.1157 44.9415 18.4182 45.0864 18.6789C45.2312 18.9401 45.4269 19.1406 45.6752 19.2816C45.9229 19.4225 46.2019 19.4927 46.5116 19.4927C46.9863 19.4927 47.3771 19.3347 47.6833 19.0192V19.0186Z" fill="white"/>
<path d="M54.2813 20.3885C53.7617 20.2305 53.3502 20.0211 53.0475 19.7604L53.5122 18.7202C53.8084 18.9537 54.1713 19.1442 54.6017 19.2916C55.0321 19.4396 55.4636 19.5134 55.8975 19.5134C56.4343 19.5134 56.8351 19.4278 57.1005 19.2556C57.3654 19.084 57.4978 18.8576 57.4978 18.5757C57.4978 18.3699 57.4239 18.1994 57.2755 18.0656C57.1271 17.9317 56.9397 17.8273 56.7127 17.7513C56.4857 17.6758 56.176 17.5903 55.7834 17.4935C55.2325 17.3632 54.7867 17.2329 54.4462 17.102C54.1057 16.9716 53.8131 16.767 53.5684 16.4892C53.3242 16.2109 53.2018 15.8352 53.2018 15.3611C53.2018 14.963 53.31 14.6004 53.527 14.2742C53.7439 13.9481 54.0708 13.6886 54.5077 13.4964C54.9446 13.3041 55.4802 13.208 56.1133 13.208C56.5537 13.208 56.9876 13.2629 57.4144 13.3725C57.8412 13.4822 58.2095 13.6403 58.5193 13.8461L58.096 14.8864C57.7792 14.7012 57.4487 14.5602 57.1047 14.4641C56.7606 14.368 56.4266 14.3202 56.1032 14.3202C55.573 14.3202 55.1793 14.4093 54.9209 14.588C54.6626 14.7667 54.5337 15.0037 54.5337 15.2986C54.5337 15.5044 54.6076 15.6731 54.756 15.8034C54.9038 15.9337 55.0918 16.0369 55.3188 16.1124C55.5458 16.1879 55.8555 16.274 56.2481 16.3701C56.7848 16.494 57.2253 16.6225 57.5699 16.7564C57.914 16.8903 58.2084 17.0949 58.4525 17.3691C58.6967 17.6439 58.819 18.0149 58.819 18.4813C58.819 18.8794 58.7108 19.2403 58.4939 19.5629C58.2769 19.8855 57.9482 20.1432 57.5078 20.3354C57.0674 20.5277 56.5301 20.6238 55.8969 20.6238C55.3395 20.6238 54.8009 20.5448 54.2807 20.3867L54.2813 20.3885Z" fill="white"/>
<path d="M63.3419 20.2239C63.1906 20.3478 63.0061 20.4403 62.7898 20.5023C62.5728 20.5642 62.3441 20.5949 62.1029 20.5949C61.4969 20.5949 61.0293 20.4368 60.6989 20.1213C60.3684 19.8058 60.2035 19.3452 60.2035 18.7408V16.0935H59.2949V15.0632H60.2035V13.8065H61.494V15.0632H62.9707V16.0935H61.494V18.7101C61.494 18.9778 61.559 19.1825 61.6902 19.3228C61.8209 19.4638 62.01 19.5339 62.2583 19.5339C62.5474 19.5339 62.7886 19.4584 62.9813 19.3075L63.3425 20.2245L63.3419 20.2239Z" fill="white"/>
<path d="M65.1905 20.234C64.743 19.994 64.3936 19.659 64.1424 19.2297C63.8911 18.8004 63.7652 18.3144 63.7652 17.7719C63.7652 17.2293 63.8905 16.7452 64.1424 16.3194C64.3936 15.8936 64.743 15.5604 65.1905 15.3204C65.638 15.0804 66.1405 14.9601 66.6979 14.9601C67.2554 14.9601 67.7685 15.0804 68.216 15.3204C68.6635 15.561 69.0129 15.8936 69.2641 16.3194C69.5154 16.7452 69.6407 17.2293 69.6407 17.7719C69.6407 18.3144 69.5148 18.8004 69.2641 19.2297C69.0129 19.659 68.6635 19.994 68.216 20.234C67.7685 20.4746 67.2625 20.5943 66.6979 20.5943C66.1334 20.5943 65.638 20.474 65.1905 20.234ZM67.8749 19.0186C68.1847 18.7031 68.3396 18.2873 68.3396 17.7725C68.3396 17.2577 68.1847 16.8419 67.8749 16.5258C67.5652 16.2103 67.1726 16.0523 66.6979 16.0523C66.2232 16.0523 65.8325 16.2103 65.5263 16.5258C65.22 16.8419 65.0669 17.2571 65.0669 17.7725C65.0669 18.2879 65.22 18.7031 65.5263 19.0186C65.8325 19.3347 66.2232 19.4921 66.6979 19.4921C67.1726 19.4921 67.5652 19.3341 67.8749 19.0186Z" fill="white"/>
<path d="M74.0703 14.9601V16.1861C73.9603 16.1655 73.8604 16.1555 73.7706 16.1555C73.2681 16.1555 72.8756 16.3017 72.5936 16.593C72.311 16.8849 72.1703 17.3054 72.1703 17.855V20.523H70.8798V15.0226H72.1088V15.8258C72.4807 15.249 73.1345 14.9607 74.0709 14.9607L74.0703 14.9601Z" fill="white"/>
<path d="M80.2762 18.1841H75.9496C76.0252 18.5893 76.2233 18.9101 76.5431 19.1471C76.8635 19.3842 77.2607 19.5027 77.7354 19.5027C78.3414 19.5027 78.8403 19.3034 79.2328 18.9053L79.9245 19.6985C79.6768 19.994 79.3635 20.2169 78.9851 20.3679C78.6062 20.5188 78.18 20.5943 77.7047 20.5943C77.0988 20.5943 76.5655 20.474 76.1044 20.234C75.6433 19.994 75.2869 19.659 75.0356 19.2297C74.7844 18.8004 74.6591 18.3144 74.6591 17.7719C74.6591 17.2293 74.7814 16.754 75.0256 16.3247C75.2697 15.8954 75.609 15.561 76.0424 15.3204C76.4763 15.0804 76.9646 14.9601 77.5084 14.9601C78.0523 14.9601 78.5252 15.0786 78.9491 15.3157C79.3724 15.5528 79.7028 15.886 79.9405 16.3147C80.1781 16.744 80.2969 17.24 80.2969 17.8032C80.2969 17.8922 80.2898 18.0196 80.2762 18.1841ZM76.4609 16.356C76.1754 16.5995 76.0016 16.9245 75.9395 17.3296H79.0679C79.0129 16.9315 78.8439 16.6084 78.5619 16.3613C78.2793 16.1142 77.9287 15.9903 77.5084 15.9903C77.0881 15.9903 76.7458 16.1124 76.4603 16.356H76.4609Z" fill="white"/>
</g>
<defs>
<clipPath id="clip0_2_228">
<rect width="89" height="27" fill="white"/>
</clipPath>
</defs>
</svg>
