<svg width="22" height="22" viewBox="0 0 22 22" fill="none" xmlns="http://www.w3.org/2000/svg">
<path d="M13.75 21.5H7.75C2.32 21.5 0 19.18 0 13.75V7.75C0 2.32 2.32 0 7.75 0H13.75C19.18 0 21.5 2.32 21.5 7.75V13.75C21.5 19.18 19.18 21.5 13.75 21.5ZM7.75 1.5C3.14 1.5 1.5 3.14 1.5 7.75V13.75C1.5 18.36 3.14 20 7.75 20H13.75C18.36 20 20 18.36 20 13.75V7.75C20 3.14 18.36 1.5 13.75 1.5H7.75Z" fill="white"/>
<path d="M10.75 15C9.62364 14.9974 8.54417 14.5488 7.74771 13.7523C6.95126 12.9559 6.50264 11.8764 6.5 10.75C6.50264 9.62368 6.95126 8.54421 7.74771 7.74776C8.54417 6.9513 9.62364 6.50268 10.75 6.50004C11.8764 6.50268 12.9558 6.9513 13.7523 7.74776C14.5487 8.54421 14.9974 9.62368 15 10.75C14.9974 11.8764 14.5487 12.9559 13.7523 13.7523C12.9558 14.5488 11.8764 14.9974 10.75 15ZM10.75 8.00004C9.23 8.00004 8 9.23004 8 10.75C8 12.27 9.23 13.5 10.75 13.5C12.27 13.5 13.5 12.27 13.5 10.75C13.5 9.23004 12.27 8.00004 10.75 8.00004ZM15.75 6.25004C15.62 6.25004 15.49 6.22004 15.37 6.17004C15.25 6.12004 15.14 6.05004 15.04 5.96004C14.95 5.86004 14.87 5.75004 14.82 5.63004C14.7718 5.50923 14.748 5.38009 14.75 5.25004C14.75 5.12004 14.77 4.99004 14.82 4.87004C14.88 4.74004 14.95 4.64004 15.04 4.54004C15.09 4.50004 15.14 4.45004 15.19 4.42004C15.25 4.38004 15.31 4.35004 15.37 4.33004C15.5523 4.25426 15.7528 4.23376 15.9466 4.2711C16.1404 4.30844 16.319 4.40197 16.46 4.54004C16.55 4.64004 16.62 4.74004 16.67 4.87004C16.72 4.99004 16.75 5.12004 16.75 5.25004C16.75 5.38004 16.72 5.51004 16.67 5.63004C16.62 5.75004 16.55 5.86004 16.46 5.96004C16.36 6.05004 16.25 6.12004 16.13 6.17004C16.01 6.22004 15.88 6.25004 15.75 6.25004Z" fill="white"/>
</svg>
