<svg width="85" height="26" viewBox="0 0 85 26" fill="none" xmlns="http://www.w3.org/2000/svg">
<g clip-path="url(#clip0_2_202)">
<path d="M81.7147 0.567884C83.2148 0.567884 84.4354 1.79565 84.4354 3.30452V22.6949C84.4354 24.2044 83.2148 25.4321 81.7147 25.4321H3.28591C1.78523 25.4321 0.564589 24.2044 0.564589 22.6949V3.30452C0.564589 1.79565 1.78523 0.567884 3.28591 0.567884H81.7147ZM81.7147 0H3.28591C1.47075 0 0 1.47934 0 3.30452V22.6949C0 24.5201 1.47075 26 3.28591 26H81.7147C83.5292 26 85 24.5207 85 22.6949V3.30452C85 1.47934 83.5292 0 81.7147 0Z" fill="white"/>
<path d="M27.8568 15.7054H29.0425V18.4103C28.6952 18.688 28.291 18.9015 27.828 19.0503C27.3656 19.199 26.8897 19.2734 26.4019 19.2734C25.7142 19.2734 25.0943 19.123 24.5415 18.8225C23.9888 18.5221 23.5552 18.107 23.2407 17.5766C22.9257 17.0468 22.7687 16.4488 22.7687 15.7832C22.7687 15.1177 22.9263 14.5197 23.2407 13.9898C23.5552 13.46 23.9911 13.0449 24.5466 12.7445C25.1022 12.4441 25.7272 12.2936 26.4211 12.2936C26.9862 12.2936 27.5006 12.3873 27.963 12.5747C28.4254 12.7621 28.8144 13.0369 29.1288 13.3987L28.3384 14.1744C27.8241 13.6576 27.2041 13.3987 26.4781 13.3987C26.0027 13.3987 25.5804 13.4992 25.2106 13.6991C24.8408 13.8996 24.5517 14.1807 24.3434 14.5424C24.1345 14.9041 24.03 15.3181 24.03 15.7832C24.03 16.2483 24.1345 16.643 24.3434 17.0047C24.5523 17.3665 24.8413 17.651 25.2106 17.8577C25.5798 18.0644 25.9993 18.1678 26.4685 18.1678C26.9953 18.1678 27.4576 18.0514 27.8562 17.8185V15.7054H27.8568Z" fill="white"/>
<path d="M31.4803 18.9049C31.0625 18.6789 30.7368 18.3637 30.5019 17.9599C30.267 17.5562 30.1501 17.099 30.1501 16.5885C30.1501 16.0779 30.2676 15.6225 30.5019 15.2216C30.7362 14.8212 31.0625 14.5078 31.4803 14.2812C31.8981 14.0551 32.3667 13.9421 32.8873 13.9421C33.4078 13.9421 33.886 14.0551 34.3038 14.2812C34.7216 14.5072 35.0474 14.8207 35.2823 15.2216C35.5166 15.6225 35.634 16.0779 35.634 16.5885C35.634 17.099 35.5166 17.5562 35.2823 17.9599C35.0474 18.3637 34.7216 18.6789 34.3038 18.9049C33.886 19.1309 33.414 19.2439 32.8873 19.2439C32.3605 19.2439 31.8975 19.1309 31.4803 18.9049ZM33.986 17.7612C34.275 17.4642 34.4196 17.0729 34.4196 16.5885C34.4196 16.1041 34.275 15.7128 33.986 15.4158C33.6969 15.1188 33.3305 14.97 32.8873 14.97C32.4441 14.97 32.0793 15.1188 31.7937 15.4158C31.5074 15.7134 31.3646 16.1041 31.3646 16.5885C31.3646 17.0729 31.5074 17.4642 31.7937 17.7612C32.0793 18.0587 32.4441 18.2069 32.8873 18.2069C33.3305 18.2069 33.6969 18.0582 33.986 17.7612Z" fill="white"/>
<path d="M37.6964 18.9049C37.2786 18.6789 36.9529 18.3637 36.718 17.9599C36.4831 17.5562 36.3663 17.099 36.3663 16.5885C36.3663 16.0779 36.4831 15.6225 36.718 15.2216C36.9523 14.8212 37.2786 14.5078 37.6964 14.2812C38.1142 14.0551 38.5828 13.9421 39.1034 13.9421C39.6239 13.9421 40.1022 14.0551 40.52 14.2812C40.9377 14.5072 41.2635 14.8207 41.4984 15.2216C41.7327 15.6225 41.8501 16.0779 41.8501 16.5885C41.8501 17.099 41.7327 17.5562 41.4984 17.9599C41.2635 18.3637 40.9377 18.6789 40.52 18.9049C40.1022 19.1309 39.6302 19.2439 39.1034 19.2439C38.5766 19.2439 38.1137 19.1309 37.6964 18.9049ZM40.2021 17.7612C40.4912 17.4642 40.6357 17.0729 40.6357 16.5885C40.6357 16.1041 40.4912 15.7128 40.2021 15.4158C39.913 15.1188 39.5466 14.97 39.1034 14.97C38.6602 14.97 38.2955 15.1188 38.0098 15.4158C37.7235 15.7134 37.5807 16.1041 37.5807 16.5885C37.5807 17.0729 37.7235 17.4642 38.0098 17.7612C38.2955 18.0587 38.6602 18.2069 39.1034 18.2069C39.5466 18.2069 39.913 18.0582 40.2021 17.7612Z" fill="white"/>
<path d="M48.1143 13.9995V18.3909C48.1143 20.2132 47.1889 21.1247 45.3388 21.1247C44.8442 21.1247 44.375 21.0617 43.9318 20.9356C43.4886 20.8095 43.1222 20.6267 42.8331 20.3881L43.3729 19.4767C43.5976 19.6641 43.8821 19.8146 44.226 19.9276C44.5698 20.0406 44.9181 20.0974 45.2716 20.0974C45.8367 20.0974 46.2511 19.9679 46.5148 19.7095C46.7785 19.4511 46.91 19.057 46.91 18.5266V18.2552C46.7045 18.4812 46.4538 18.6527 46.1586 18.7691C45.8627 18.8855 45.5386 18.9434 45.1852 18.9434C44.6968 18.9434 44.2553 18.8384 43.8601 18.6283C43.4649 18.4182 43.1532 18.1229 42.9251 17.7412C42.6971 17.3602 42.583 16.9241 42.583 16.4328C42.583 15.9416 42.6971 15.5072 42.9251 15.129C43.1532 14.7508 43.4649 14.4589 43.8601 14.2516C44.2553 14.0449 44.6968 13.9415 45.1852 13.9415C45.5578 13.9415 45.8966 14.0029 46.202 14.1255C46.5069 14.2482 46.7627 14.4356 46.9682 14.6877V13.9995H48.1149H48.1143ZM46.4905 17.5039C46.783 17.229 46.9292 16.8724 46.9292 16.4328C46.9292 15.9933 46.783 15.6475 46.4905 15.376C46.1981 15.1046 45.8237 14.9688 45.3676 14.9688C44.9114 14.9688 44.5275 15.1046 44.235 15.376C43.9425 15.6475 43.7963 15.9995 43.7963 16.4328C43.7963 16.8661 43.9425 17.2296 44.235 17.5039C44.5275 17.7787 44.9046 17.9156 45.3676 17.9156C45.8305 17.9156 46.1981 17.7782 46.4905 17.5039Z" fill="white"/>
<path d="M49.6951 11.9829H50.9V19.1757H49.6951V11.9829Z" fill="white"/>
<path d="M57.299 16.9757H53.261C53.3316 17.3574 53.5162 17.6589 53.8155 17.8821C54.1141 18.1053 54.4851 18.2166 54.9288 18.2166C55.494 18.2166 55.9598 18.0292 56.3262 17.6544L56.9721 18.4006C56.7406 18.6783 56.4481 18.8884 56.0953 19.0309C55.7418 19.1729 55.3438 19.2444 54.9 19.2444C54.3343 19.2444 53.8363 19.1314 53.4061 18.9054C52.9753 18.6794 52.6434 18.3642 52.4085 17.9604C52.1736 17.5567 52.0568 17.0995 52.0568 16.589C52.0568 16.0785 52.1708 15.631 52.3989 15.2272C52.627 14.8235 52.9432 14.5083 53.348 14.2823C53.7528 14.0562 54.209 13.9432 54.7165 13.9432C55.2241 13.9432 55.6656 14.0545 56.0608 14.2777C56.456 14.5009 56.7643 14.8144 56.9862 15.2181C57.2081 15.6219 57.3187 16.0893 57.3187 16.6191C57.3187 16.7032 57.3125 16.8224 57.2995 16.978L57.299 16.9757ZM53.7381 15.255C53.4716 15.4845 53.309 15.79 53.2514 16.171H56.1715C56.1201 15.7962 55.9626 15.4924 55.6995 15.2596C55.4358 15.0268 55.1084 14.9103 54.7165 14.9103C54.3247 14.9103 54.0046 15.0251 53.7381 15.2545V15.255Z" fill="white"/>
<path d="M65.5533 12.6814C65.9869 12.875 66.3194 13.1533 66.5509 13.515C66.7824 13.8768 66.8982 14.3067 66.8982 14.8041C66.8982 15.3016 66.7824 15.7235 66.5509 16.0887C66.3194 16.4538 65.9869 16.7332 65.5533 16.9274C65.1197 17.1211 64.6104 17.2182 64.0255 17.2182H62.5028V19.1763H61.25V12.3906H64.0255C64.6099 12.3906 65.1191 12.4877 65.5533 12.6814ZM65.2112 15.803C65.494 15.5702 65.6352 15.2374 65.6352 14.8047C65.6352 14.372 65.494 14.0386 65.2112 13.8064C64.9283 13.5735 64.5139 13.4571 63.9679 13.4571H62.5028V16.1517H63.9679C64.5139 16.1517 64.9283 16.0353 65.2112 15.8025V15.803Z" fill="white"/>
<path d="M68.1312 11.9829H69.3361V19.1757H68.1312V11.9829Z" fill="white"/>
<path d="M74.6217 14.4889C75.0231 14.8541 75.2241 15.4049 75.2241 16.1415V19.1757H74.0871V18.5453C73.9391 18.7713 73.7286 18.9445 73.4559 19.0638C73.1826 19.1831 72.8534 19.2432 72.4678 19.2432C72.0822 19.2432 71.7451 19.1768 71.4561 19.0445C71.167 18.9122 70.9434 18.7282 70.7865 18.4919C70.629 18.2563 70.5505 17.9894 70.5505 17.6924C70.5505 17.2273 70.7221 16.8536 71.0659 16.5725C71.4098 16.2914 71.9512 16.1506 72.6897 16.1506H74.0199V16.0728C74.0199 15.711 73.912 15.4327 73.6969 15.2391C73.4818 15.0455 73.1623 14.9483 72.7383 14.9483C72.4492 14.9483 72.1646 14.9938 71.8852 15.0841C71.6057 15.1749 71.3697 15.3004 71.1766 15.4623L70.7046 14.5804C70.9745 14.3736 71.2986 14.2152 71.678 14.1056C72.0568 13.996 72.4588 13.9409 72.8828 13.9409C73.641 13.9409 74.2209 14.1238 74.6223 14.4884L74.6217 14.4889ZM73.523 18.1529C73.7573 18.0138 73.9228 17.815 74.0193 17.5566V16.9558H72.7761C72.0822 16.9558 71.735 17.1852 71.735 17.6441C71.735 17.8639 71.8219 18.0382 71.9953 18.1677C72.1686 18.2972 72.4097 18.3613 72.7179 18.3613C73.0262 18.3613 73.2882 18.292 73.5225 18.1529H73.523Z" fill="white"/>
<path d="M81.4888 13.9995L79.0797 19.5926C78.855 20.1548 78.5817 20.5506 78.2605 20.78C77.9392 21.0095 77.5502 21.1242 77.0946 21.1242C76.8377 21.1242 76.5836 21.0822 76.333 20.9981C76.0823 20.9141 75.8768 20.7976 75.7164 20.6489L76.1986 19.7573C76.3143 19.8669 76.4504 19.9543 76.6079 20.0191C76.7654 20.0838 76.9241 20.1162 77.085 20.1162C77.2973 20.1162 77.4723 20.0611 77.6101 19.9515C77.7484 19.8413 77.8749 19.6573 77.9906 19.399L78.0775 19.1956L75.8322 13.9995H77.085L78.7042 17.8288L80.3331 13.9995H81.4894H81.4888Z" fill="white"/>
<path d="M24.9243 8.62334C24.6522 8.62334 24.3987 8.56371 24.1633 8.44446C23.9278 8.3252 23.7229 8.16506 23.5484 7.96346C23.3734 7.76243 23.2373 7.53527 23.1402 7.28313C23.0431 7.03099 22.9946 6.76977 22.9946 6.50002C22.9946 6.23028 23.0431 5.95201 23.1402 5.69987C23.2373 5.44773 23.3723 5.22399 23.5456 5.02863C23.7184 4.83328 23.9228 4.67995 24.1576 4.56808C24.3925 4.45678 24.6482 4.40112 24.9243 4.40112C25.3246 4.40112 25.6549 4.48517 25.9152 4.65326C26.1755 4.82136 26.3719 5.04056 26.5041 5.31031L26.1021 5.59198C25.9818 5.34949 25.8164 5.17004 25.6064 5.05249C25.3963 4.93493 25.1654 4.87644 24.9125 4.87644C24.7024 4.87644 24.5122 4.9213 24.3411 5.01103C24.17 5.10076 24.0232 5.22342 23.9007 5.37732C23.7782 5.53178 23.6851 5.70669 23.6207 5.90204C23.5563 6.09739 23.5247 6.30069 23.5247 6.51195C23.5247 6.73456 23.5608 6.94468 23.6326 7.1423C23.7043 7.33992 23.8064 7.5137 23.9386 7.66418C24.0707 7.81467 24.2242 7.93279 24.3993 8.01911C24.5743 8.10486 24.7629 8.14802 24.965 8.14802C25.2021 8.14802 25.4274 8.08726 25.6414 7.9663C25.8553 7.84534 26.0575 7.65964 26.2477 7.4092V7.95437C25.8745 8.40016 25.4336 8.62277 24.9243 8.62277V8.62334ZM26.1834 6.91685H25.2913V6.51819H26.6266V8.59381H26.1834V6.91685Z" fill="white"/>
<path d="M30.2349 8.12475V8.59382H27.4249V4.43066H30.1824V4.89974H27.9494V6.24846H29.8911V6.688H27.9494V8.12475H30.2349Z" fill="white"/>
<path d="M33.9369 4.89974H32.5085V8.59382H31.984V4.89974H30.5555V4.43066H33.9369V4.89974Z" fill="white"/>
<path d="M35.8316 8.59382V4.43066H36.3561V8.59382H35.8316Z" fill="white"/>
<path d="M37.872 5.40402V8.59382H37.3475V4.43066H37.7907L40.3207 7.68521V4.43634H40.8452V8.59382H40.367L37.872 5.40402Z" fill="white"/>
<path d="M44.9904 8.62334C44.6991 8.62334 44.4348 8.56485 44.1977 8.4473C43.9606 8.32974 43.7556 8.17074 43.5829 7.96914C43.4101 7.76754 43.2769 7.54095 43.1837 7.28881C43.0906 7.03667 43.0437 6.77772 43.0437 6.51195C43.0437 6.24618 43.0934 5.96962 43.1922 5.71748C43.2916 5.46534 43.4293 5.24046 43.606 5.0434C43.7827 4.84578 43.99 4.68961 44.2271 4.57433C44.4642 4.45905 44.7228 4.40112 45.0023 4.40112C45.2817 4.40112 45.5578 4.46189 45.7949 4.58285C46.0321 4.70381 46.2359 4.86622 46.407 5.06952C46.578 5.27282 46.7101 5.49941 46.8033 5.74985C46.8965 6.00028 46.9433 6.2564 46.9433 6.51819C46.9433 6.79589 46.8948 7.06052 46.7977 7.31266C46.7005 7.5648 46.5633 7.78969 46.3866 7.98674C46.2099 8.18437 46.0027 8.3394 45.7656 8.45298C45.5285 8.56655 45.2699 8.62277 44.9904 8.62277V8.62334ZM43.5739 6.51252C43.5739 6.72377 43.6077 6.92821 43.676 7.12526C43.7438 7.32289 43.8403 7.49779 43.9645 7.64999C44.0888 7.80218 44.2384 7.92371 44.4134 8.01343C44.5884 8.10316 44.7826 8.14802 44.9966 8.14802C45.2106 8.14802 45.4161 8.10089 45.5911 8.00719C45.7661 7.91349 45.9146 7.78855 46.0371 7.63181C46.1597 7.47565 46.2528 7.2996 46.3172 7.10425C46.3816 6.9089 46.4132 6.71127 46.4132 6.51195C46.4132 6.30069 46.3793 6.09739 46.311 5.90204C46.2432 5.70669 46.1456 5.53178 46.0196 5.37732C45.8932 5.22285 45.7436 5.10189 45.5708 5.01387C45.398 4.92585 45.2066 4.88212 44.9966 4.88212C44.7753 4.88212 44.5771 4.92812 44.4021 5.02012C44.2271 5.11211 44.0786 5.23591 43.9561 5.39265C43.8336 5.54882 43.7393 5.72372 43.6732 5.91737C43.6072 6.11102 43.5739 6.30921 43.5739 6.51252Z" fill="white"/>
<path d="M48.1967 5.40402V8.59382H47.6722V4.43066H48.1154L50.6459 7.68521V4.43634H51.1704V8.59382H50.6922L48.1972 5.40402H48.1967Z" fill="white"/>
<path d="M20.4528 12.6684L17.2143 10.7887L14.5511 13.3782L16.9851 15.7452L20.4528 13.732C20.6436 13.6213 20.7577 13.4225 20.7577 13.2005C20.7577 12.9785 20.6436 12.7797 20.4528 12.6684Z" fill="white"/>
<path d="M16.665 10.4689L13.1007 8.40012L5.29077 4.37439L14.1119 12.9511L16.665 10.4689Z" fill="white"/>
<path d="M5.42059 22.256L13.1142 17.9929L16.4352 16.0643L14.1119 13.8053L5.42059 22.256Z" fill="white"/>
<path d="M4.76964 4.72131L4.76117 22.0429L13.6732 13.3781L4.76964 4.72131Z" fill="white"/>
</g>
<defs>
<clipPath id="clip0_2_202">
<rect width="85" height="26" fill="white"/>
</clipPath>
</defs>
</svg>
