<svg width="35" height="50" viewBox="0 0 35 50" fill="none" xmlns="http://www.w3.org/2000/svg">
<path d="M0 4.58806C0 3.41387 0.458215 2.28777 1.27384 1.45749C2.08947 0.627212 3.1957 0.160767 4.34917 0.160767L30.4442 0.160767C31.5977 0.160767 32.7039 0.627212 33.5196 1.45749C34.3352 2.28777 34.7934 3.41387 34.7934 4.58806V22.2972C34.7934 23.4714 34.3352 24.5975 33.5196 25.4278C32.7039 26.2581 31.5977 26.7245 30.4442 26.7245H9.59863C9.02194 26.7246 8.46891 26.9579 8.06119 27.3731L1.8571 33.6886C1.70516 33.8437 1.51145 33.9494 1.30048 33.9923C1.08951 34.0353 0.870774 34.0135 0.671946 33.9299C0.473118 33.8462 0.303142 33.7044 0.183529 33.5223C0.0639167 33.3403 4.56987e-05 33.1262 0 32.9072L0 4.58806ZM10.8729 13.4426C10.8729 12.8555 10.6438 12.2925 10.236 11.8774C9.8282 11.4622 9.27509 11.229 8.69835 11.229C8.12161 11.229 7.5685 11.4622 7.16068 11.8774C6.75287 12.2925 6.52376 12.8555 6.52376 13.4426C6.52376 14.0297 6.75287 14.5928 7.16068 15.0079C7.5685 15.4231 8.12161 15.6563 8.69835 15.6563C9.27509 15.6563 9.8282 15.4231 10.236 15.0079C10.6438 14.5928 10.8729 14.0297 10.8729 13.4426ZM19.5713 13.4426C19.5713 12.8555 19.3422 12.2925 18.9344 11.8774C18.5265 11.4622 17.9734 11.229 17.3967 11.229C16.82 11.229 16.2668 11.4622 15.859 11.8774C15.4512 12.2925 15.2221 12.8555 15.2221 13.4426C15.2221 14.0297 15.4512 14.5928 15.859 15.0079C16.2668 15.4231 16.82 15.6563 17.3967 15.6563C17.9734 15.6563 18.5265 15.4231 18.9344 15.0079C19.3422 14.5928 19.5713 14.0297 19.5713 13.4426ZM26.095 15.6563C26.6718 15.6563 27.2249 15.4231 27.6327 15.0079C28.0405 14.5928 28.2696 14.0297 28.2696 13.4426C28.2696 12.8555 28.0405 12.2925 27.6327 11.8774C27.2249 11.4622 26.6718 11.229 26.095 11.229C25.5183 11.229 24.9652 11.4622 24.5574 11.8774C24.1496 12.2925 23.9205 12.8555 23.9205 13.4426C23.9205 14.0297 24.1496 14.5928 24.5574 15.0079C24.9652 15.4231 25.5183 15.6563 26.095 15.6563Z" fill="white"/>
<path d="M1.60465 45.7753V39.9571H3.67852C4.13117 39.9571 4.50617 40.0395 4.80352 40.2042C5.10087 40.369 5.3234 40.5944 5.47113 40.8804C5.61886 41.1645 5.69272 41.4845 5.69272 41.8406C5.69272 42.1986 5.61791 42.5205 5.46829 42.8065C5.32056 43.0906 5.09708 43.316 4.79783 43.4827C4.50049 43.6474 4.12643 43.7298 3.67568 43.7298H2.24954V42.9855H3.59613C3.88212 42.9855 4.11412 42.9363 4.29215 42.8378C4.47018 42.7374 4.60087 42.601 4.6842 42.4287C4.76753 42.2563 4.8092 42.0603 4.8092 41.8406C4.8092 41.6209 4.76753 41.4258 4.6842 41.2554C4.60087 41.0849 4.46924 40.9514 4.28931 40.8548C4.11128 40.7582 3.87643 40.7099 3.58477 40.7099H2.48249V45.7753H1.60465ZM12.1358 42.8662C12.1358 43.4874 12.0222 44.0215 11.7949 44.4685C11.5676 44.9135 11.2561 45.2563 10.8602 45.4969C10.4663 45.7355 10.0184 45.8548 9.5165 45.8548C9.01271 45.8548 8.5629 45.7355 8.16707 45.4969C7.77313 45.2563 7.46252 44.9126 7.23525 44.4656C7.00798 44.0186 6.89434 43.4855 6.89434 42.8662C6.89434 42.245 7.00798 41.7118 7.23525 41.2667C7.46252 40.8198 7.77313 40.477 8.16707 40.2383C8.5629 39.9978 9.01271 39.8775 9.5165 39.8775C10.0184 39.8775 10.4663 39.9978 10.8602 40.2383C11.2561 40.477 11.5676 40.8198 11.7949 41.2667C12.0222 41.7118 12.1358 42.245 12.1358 42.8662ZM11.2665 42.8662C11.2665 42.3927 11.1898 41.994 11.0364 41.6702C10.8849 41.3444 10.6765 41.0982 10.4114 40.9315C10.1481 40.763 9.84983 40.6787 9.5165 40.6787C9.18127 40.6787 8.88203 40.763 8.61877 40.9315C8.35551 41.0982 8.14718 41.3444 7.99377 41.6702C7.84226 41.994 7.7665 42.3927 7.7665 42.8662C7.7665 43.3397 7.84226 43.7393 7.99377 44.065C8.14718 44.3889 8.35551 44.6351 8.61877 44.8037C8.88203 44.9703 9.18127 45.0537 9.5165 45.0537C9.84983 45.0537 10.1481 44.9703 10.4114 44.8037C10.6765 44.6351 10.8849 44.3889 11.0364 44.065C11.1898 43.7393 11.2665 43.3397 11.2665 42.8662ZM13.5903 45.7753V39.9571H15.6641C16.1149 39.9571 16.489 40.0347 16.7863 40.19C17.0855 40.3453 17.309 40.5603 17.4568 40.8349C17.6045 41.1077 17.6783 41.423 17.6783 41.781C17.6783 42.137 17.6035 42.4505 17.4539 42.7213C17.3062 42.9902 17.0827 43.1995 16.7835 43.3491C16.4861 43.4988 16.1121 43.5736 15.6613 43.5736H14.0903V42.8179H15.5818C15.8658 42.8179 16.0969 42.7772 16.2749 42.6957C16.4549 42.6143 16.5865 42.4959 16.6698 42.3406C16.7532 42.1853 16.7948 41.9988 16.7948 41.781C16.7948 41.5613 16.7522 41.3709 16.667 41.2099C16.5836 41.0489 16.452 40.9258 16.2721 40.8406C16.0941 40.7535 15.8602 40.7099 15.5704 40.7099H14.4681V45.7753H13.5903ZM16.4624 43.1503L17.8999 45.7753H16.8999L15.4908 43.1503H16.4624ZM18.8196 40.7128V39.9571H23.3224V40.7128H21.5071V45.7753H20.6321V40.7128H18.8196ZM24.4814 45.7753H23.5496L25.6434 39.9571H26.6576L28.7513 45.7753H27.8195L26.1746 41.0139H26.1292L24.4814 45.7753ZM24.6377 43.4969H27.6604V44.2355H24.6377V43.4969ZM29.9515 45.7753V39.9571H30.8294V45.0196H33.4657V45.7753H29.9515Z" fill="white"/>
</svg>
