<svg width="40" height="50" viewBox="0 0 40 50" fill="none" xmlns="http://www.w3.org/2000/svg">
<path d="M14.3356 41.4855C14.3053 41.2166 14.1803 41.0082 13.9606 40.8605C13.7409 40.7109 13.4644 40.6361 13.1311 40.6361C12.8925 40.6361 12.686 40.6739 12.5118 40.7497C12.3375 40.8236 12.2021 40.9258 12.1055 41.0565C12.0108 41.1853 11.9635 41.3321 11.9635 41.4969C11.9635 41.6351 11.9957 41.7544 12.0601 41.8548C12.1264 41.9552 12.2125 42.0395 12.3186 42.1077C12.4266 42.1739 12.5421 42.2298 12.6652 42.2753C12.7883 42.3188 12.9067 42.3548 13.0203 42.3832L13.5885 42.531C13.7741 42.5764 13.9644 42.638 14.1595 42.7156C14.3546 42.7933 14.5355 42.8955 14.7021 43.0224C14.8688 43.1493 15.0033 43.3065 15.1055 43.494C15.2097 43.6815 15.2618 43.906 15.2618 44.1673C15.2618 44.4969 15.1766 44.7895 15.0061 45.0452C14.8375 45.3008 14.5923 45.5025 14.2703 45.6503C13.9502 45.798 13.5629 45.8719 13.1084 45.8719C12.6728 45.8719 12.2959 45.8027 11.9777 45.6645C11.6595 45.5262 11.4105 45.3302 11.2305 45.0764C11.0506 44.8207 10.9512 44.5177 10.9322 44.1673H11.8129C11.83 44.3775 11.8981 44.5527 12.0175 44.6929C12.1387 44.8311 12.293 44.9344 12.4805 45.0025C12.6699 45.0688 12.8773 45.102 13.1027 45.102C13.3508 45.102 13.5714 45.0631 13.7646 44.9855C13.9597 44.906 14.1131 44.7961 14.2248 44.656C14.3366 44.5139 14.3925 44.3482 14.3925 44.1588C14.3925 43.9864 14.3432 43.8453 14.2447 43.7355C14.1481 43.6256 14.0165 43.5347 13.8498 43.4628C13.6851 43.3908 13.4985 43.3274 13.2902 43.2724L12.6027 43.0849C12.1368 42.958 11.7675 42.7715 11.4947 42.5253C11.2239 42.2791 11.0885 41.9533 11.0885 41.548C11.0885 41.2128 11.1794 40.9202 11.3612 40.6702C11.543 40.4202 11.7892 40.226 12.0998 40.0878C12.4105 39.9476 12.7608 39.8775 13.151 39.8775C13.5449 39.8775 13.8925 39.9467 14.1936 40.0849C14.4966 40.2232 14.7353 40.4135 14.9095 40.656C15.0837 40.8965 15.1747 41.173 15.1822 41.4855H14.3356ZM17.5486 39.9571V45.7753H16.6708V39.9571H17.5486ZM18.9001 40.7128V39.9571H23.4029V40.7128H21.5876V45.7753H20.7126V40.7128H18.9001ZM24.758 45.7753V39.9571H28.4057V40.7128H25.6358V42.4855H28.2154V43.2383H25.6358V45.0196H28.4398V45.7753H24.758Z" fill="white"/>
<path d="M7.70793 6.20599C7.70793 6.52664 7.58055 6.83416 7.35381 7.0609C7.12707 7.28764 6.81955 7.41502 6.49889 7.41502C6.17824 7.41502 5.87071 7.28764 5.64397 7.0609C5.41724 6.83416 5.28986 6.52664 5.28986 6.20599C5.28986 5.88533 5.41724 5.57781 5.64397 5.35107C5.87071 5.12433 6.17824 4.99695 6.49889 4.99695C6.81955 4.99695 7.12707 5.12433 7.35381 5.35107C7.58055 5.57781 7.70793 5.88533 7.70793 6.20599ZM11.335 6.20599C11.335 6.52664 11.2077 6.83416 10.9809 7.0609C10.7542 7.28764 10.4467 7.41502 10.126 7.41502C9.80535 7.41502 9.49782 7.28764 9.27109 7.0609C9.04435 6.83416 8.91697 6.52664 8.91697 6.20599C8.91697 5.88533 9.04435 5.57781 9.27109 5.35107C9.49782 5.12433 9.80535 4.99695 10.126 4.99695C10.4467 4.99695 10.7542 5.12433 10.9809 5.35107C11.2077 5.57781 11.335 5.88533 11.335 6.20599ZM13.7531 7.41502C14.0738 7.41502 14.3813 7.28764 14.608 7.0609C14.8348 6.83416 14.9622 6.52664 14.9622 6.20599C14.9622 5.88533 14.8348 5.57781 14.608 5.35107C14.3813 5.12433 14.0738 4.99695 13.7531 4.99695C13.4325 4.99695 13.1249 5.12433 12.8982 5.35107C12.6715 5.57781 12.5441 5.88533 12.5441 6.20599C12.5441 6.52664 12.6715 6.83416 12.8982 7.0609C13.1249 7.28764 13.4325 7.41502 13.7531 7.41502Z" fill="white"/>
<path d="M1.66271 0.160767C1.34205 0.160767 1.03453 0.288147 0.807793 0.514885C0.581055 0.741624 0.453674 1.04915 0.453674 1.3698L0.453674 32.8048C0.453674 33.1254 0.581055 33.4329 0.807793 33.6597C1.03453 33.8864 1.34205 34.0138 1.66271 34.0138H37.9338C38.2545 34.0138 38.562 33.8864 38.7887 33.6597C39.0155 33.4329 39.1429 33.1254 39.1429 32.8048V1.3698C39.1429 1.04915 39.0155 0.741624 38.7887 0.514885C38.562 0.288147 38.2545 0.160767 37.9338 0.160767H1.66271ZM2.87175 9.83306V2.57884H36.7248V9.83306H2.87175ZM2.87175 12.2511H36.7248V31.5957H2.87175V12.2511Z" fill="white"/>
</svg>
