<svg width="25" height="20" viewBox="0 0 25 20" fill="none" xmlns="http://www.w3.org/2000/svg">
<path d="M7.85313 20C17.2875 20 22.4484 12.3035 22.4484 5.64077C22.4484 5.42539 22.4484 5.20694 22.4391 4.99157C23.4438 4.27543 24.311 3.38881 25 2.37325C24.0614 2.78069 23.0668 3.04922 22.0484 3.17013C23.1211 2.53884 23.9246 1.54555 24.3094 0.374893C23.3015 0.962744 22.1985 1.37541 21.0484 1.59483C20.2753 0.784138 19.2522 0.24708 18.1376 0.0668435C17.0231 -0.113393 15.8793 0.0732493 14.8833 0.597861C13.8874 1.12247 13.095 1.95578 12.6288 2.96869C12.1626 3.98161 12.0487 5.11761 12.3047 6.20074C10.2652 6.10005 8.27003 5.57841 6.4485 4.66965C4.62698 3.76089 3.01982 2.48531 1.73125 0.925632C1.07709 2.03801 0.877459 3.35381 1.17288 4.60585C1.46831 5.85788 2.23665 6.95228 3.32187 7.66681C2.50866 7.63961 1.71331 7.42461 1 7.03915V7.10838C1.0014 8.27367 1.41142 9.40275 2.16074 10.3048C2.91006 11.2068 3.95273 11.8264 5.1125 12.0589C4.67229 12.1783 4.21755 12.2378 3.76094 12.2358C3.43904 12.2368 3.11778 12.2074 2.80156 12.1481C3.12935 13.1512 3.76761 14.0283 4.62695 14.6564C5.48628 15.2845 6.52365 15.6323 7.59375 15.651C5.77587 17.0568 3.53031 17.8192 1.21875 17.8155C0.811439 17.8172 0.404411 17.7941 0 17.7463C2.34612 19.2189 5.07078 20.0008 7.85313 20Z" fill="white"/>
</svg>
